<svg xmlns="http://www.w3.org/2000/svg" version="1.1" xmlns:xlink="http://www.w3.org/1999/xlink" xmlns:svgjs="http://svgjs.dev/svgjs" width="1000" height="750" viewBox="0 0 1000 750"><rect width="1000" height="750" fill="#61777f"></rect><g transform="matrix(0.834,0,0,0.834,82.49454545454546,163.91009590504447)"><svg viewBox="0 0 396 200" data-background-color="#61777f" preserveAspectRatio="xMidYMid meet" height="505" width="1000" xmlns="http://www.w3.org/2000/svg" xmlns:xlink="http://www.w3.org/1999/xlink"><g id="tight-bounds" transform="matrix(1,0,0,1,0.2400000000000091,0.2397626112759781)"><svg viewBox="0 0 395.52 199.52047477744804" height="199.52047477744804" width="395.52"><g><svg viewBox="0 0 395.52 199.52047477744804" height="199.52047477744804" width="395.52"><g><svg viewBox="0 0 395.52 199.52047477744804" height="199.52047477744804" width="395.52"><g><svg viewBox="0 0 395.52 199.52047477744804" height="199.52047477744804" width="395.52"><g><svg viewBox="0 0 395.52 199.52047477744804" height="199.52047477744804" width="395.52"><g transform="matrix(1,0,0,1,0,0)"><svg width="395.52" viewBox="1.27 -32.71 65.82000000000001 33.2" height="199.52047477744804" data-palette-color="#000000"><path d="M9.28-32.03L9.28-32.03Q10.25-32.03 12.04-32.15 13.82-32.28 14.4-32.32L14.4-32.32Q14.89-30.76 18.41-23.12 21.92-15.48 23.63-11.23L23.63-11.23 23.73-11.23Q23.83-11.23 23.83-11.28L23.83-11.28Q27.59-20.61 29.79-26.66L29.79-26.66 31.4-32.13Q32.28-32.03 35.35-32.03L35.35-32.03Q35.64-32.03 41.5-32.32L41.5-32.32Q41.7-32.03 41.7-31.54L41.7-31.54Q41.7-30.52 41.46-30.52L41.46-30.52 41.41-30.52Q40.19-30.52 39.36-29.93L39.36-29.93Q38.62-29.39 38.67-27.93L38.67-27.93Q38.77-25.98 39.16-17.82 39.55-9.67 39.65-7.42L39.65-7.42Q39.79-4.44 40.38-2.93L40.38-2.93Q40.58-2.49 41.67-2.05 42.77-1.61 43.21-1.61L43.21-1.61Q43.41-1.61 43.41-0.63L43.41-0.63Q43.41-0.1 43.31 0.2L43.31 0.2Q42.77 0.15 40.58-0.02 38.38-0.2 37.11-0.2L37.11-0.2Q35.79-0.2 33.25-0.02 30.71 0.15 30.03 0.2L30.03 0.2Q29.79-0.05 29.79-0.59L29.79-0.59Q29.79-1.61 29.93-1.61L29.93-1.61Q30.47-1.61 31.59-2.05 32.71-2.49 32.96-2.98L32.96-2.98Q33.35-3.71 33.35-4.35L33.35-4.35Q33.35-5.47 33.25-7.23L33.25-7.23 32.86-19.63Q32.67-22.9 32.47-22.9L32.47-22.9Q32.37-22.9 32.23-22.56L32.23-22.56 23.78-1.51Q23.58-1.03 23-0.46 22.41 0.1 21.83 0.1L21.83 0.1Q21.68 0.1 21.39 0L21.39 0 10.64-24.12 9.81-5.32Q9.81-3.91 9.86-3.56L9.86-3.56Q10.01-2.93 12.01-2.27 14.01-1.61 14.65-1.61L14.65-1.61Q14.84-1.61 14.84-0.63L14.84-0.63Q14.84-0.1 14.75 0.2L14.75 0.2Q14.36 0.2 11.82 0 9.28-0.2 8.01-0.2 6.74-0.2 4.49-0.02 2.25 0.15 1.46 0.2L1.46 0.2Q1.27 0 1.27-0.63L1.27-0.63Q1.27-1.56 1.42-1.56L1.42-1.56Q2.29-1.56 4.27-2.29 6.25-3.03 6.35-4.05L6.35-4.05Q6.45-5.18 6.54-6.4L6.54-6.4Q6.69-8.94 6.88-13.89 7.08-18.85 7.23-23.44 7.37-28.03 7.42-28.66L7.42-28.66Q7.42-29.2 7.28-29.54L7.28-29.54Q7.13-29.93 5.71-30.25 4.3-30.57 3.66-30.57L3.66-30.57Q3.47-30.57 3.47-31.59L3.47-31.59Q3.47-32.13 3.66-32.32L3.66-32.32Q4.35-32.28 6.18-32.15 8.01-32.03 9.28-32.03ZM46.34-23.88L46.34-23.88Q46.34-27.54 49.58-30.13 52.83-32.71 56.74-32.71L56.74-32.71Q57.76-32.71 58.86-32.57 59.96-32.42 60.72-32.28 61.47-32.13 62.81-31.81 64.16-31.49 64.94-31.35L64.94-31.35Q65.48-26.61 65.48-23.24L65.48-23.24Q65.28-22.75 64.74-22.75L64.74-22.75Q63.33-22.75 63.23-23.1L63.23-23.1Q62.89-25.54 61.13-27.76 59.37-29.98 56.78-29.98L56.78-29.98Q55.12-29.98 53.98-28.96 52.83-27.93 52.83-25.68L52.83-25.68Q52.83-24.71 53.32-23.78 53.81-22.85 54.95-21.88 56.1-20.9 56.83-20.41 57.57-19.92 59.23-18.85L59.23-18.85Q59.67-18.55 59.91-18.41L59.91-18.41Q60.3-18.16 61.52-17.43 62.74-16.7 63.25-16.33 63.77-15.97 64.67-15.14 65.57-14.31 65.99-13.5 66.4-12.7 66.75-11.4 67.09-10.11 67.09-8.54L67.09-8.54Q67.09-4.64 63.86-2.08 60.64 0.49 56.44 0.49L56.44 0.49Q52.59 0.49 47.17-0.78L47.17-0.78Q46.77-2.34 46.41-5.05 46.04-7.76 46.04-8.89L46.04-8.89Q46.19-9.38 46.92-9.38L46.92-9.38Q48.44-9.38 48.48-9.08L48.48-9.08Q48.87-6.84 50.93-4.57 52.98-2.29 55.47-2.29L55.47-2.29Q60.3-2.29 60.3-7.62L60.3-7.62Q60.3-8.45 59.86-9.25 59.42-10.06 58.54-10.84 57.66-11.62 56.98-12.11 56.3-12.6 55.05-13.38 53.81-14.16 53.46-14.4L53.46-14.4Q53.22-14.55 52.73-14.89L52.73-14.89Q51.12-15.97 50.29-16.6 49.46-17.24 48.36-18.36 47.26-19.48 46.8-20.83 46.34-22.17 46.34-23.88Z" opacity="1" transform="matrix(1,0,0,1,0,0)" fill="#000000" class="undefined-text-0" data-fill-palette-color="primary" id="text-0"></path></svg></g></svg></g></svg></g></svg></g><g></g></svg></g><defs></defs></svg><rect width="395.52" height="199.52047477744804" fill="none" stroke="none" visibility="hidden"></rect></g></svg></g></svg>